<svg height="3790" width="720" xmlns="http://www.w3.org/2000/svg">
<rect height="3790" fill="#555" width="720"></rect>
<text fill="#7f7" font-family="Courier New" font-size="12" xml:space="preserve">
<tspan x="10" y="26">25 megabytes installed</tspan>
<tspan x="10" y="42"></tspan>
<tspan x="10" y="58">node_modules</tspan>
<tspan x="10" y="74">└─┬ cssnext@1.8.4 </tspan>
<tspan x="10" y="90">  ├─┬ autoprefixer-core@5.2.1 </tspan>
<tspan x="10" y="106">  │ ├── browserslist@0.4.0 </tspan>
<tspan x="10" y="122">  │ ├── caniuse-db@1.0.30000655 </tspan>
<tspan x="10" y="138">  │ └── num2fraction@1.2.2 </tspan>
<tspan x="10" y="154">  ├─┬ caniuse-api@1.6.1 </tspan>
<tspan x="10" y="170">  │ ├─┬ browserslist@1.7.7 </tspan>
<tspan x="10" y="186">  │ │ └── electron-to-chromium@1.3.4 </tspan>
<tspan x="10" y="202">  │ ├── lodash.memoize@4.1.2 </tspan>
<tspan x="10" y="218">  │ └── lodash.uniq@4.5.0 </tspan>
<tspan x="10" y="234">  ├─┬ chalk@1.1.3 </tspan>
<tspan x="10" y="250">  │ ├── ansi-styles@2.2.1 </tspan>
<tspan x="10" y="266">  │ ├── escape-string-regexp@1.0.5 </tspan>
<tspan x="10" y="282">  │ ├─┬ has-ansi@2.0.0 </tspan>
<tspan x="10" y="298">  │ │ └── ansi-regex@2.1.1 </tspan>
<tspan x="10" y="314">  │ ├── strip-ansi@3.0.1 </tspan>
<tspan x="10" y="330">  │ └── supports-color@2.0.0 </tspan>
<tspan x="10" y="346">  ├─┬ chokidar@1.6.1 </tspan>
<tspan x="10" y="362">  │ ├─┬ anymatch@1.3.0 </tspan>
<tspan x="10" y="378">  │ │ ├── arrify@1.0.1 </tspan>
<tspan x="10" y="394">  │ │ └─┬ micromatch@2.3.11 </tspan>
<tspan x="10" y="410">  │ │   ├─┬ arr-diff@2.0.0 </tspan>
<tspan x="10" y="426">  │ │   │ └── arr-flatten@1.0.3 </tspan>
<tspan x="10" y="442">  │ │   ├── array-unique@0.2.1 </tspan>
<tspan x="10" y="458">  │ │   ├─┬ braces@1.8.5 </tspan>
<tspan x="10" y="474">  │ │   │ ├─┬ expand-range@1.8.2 </tspan>
<tspan x="10" y="490">  │ │   │ │ └─┬ fill-range@2.2.3 </tspan>
<tspan x="10" y="506">  │ │   │ │   ├── is-number@2.1.0 </tspan>
<tspan x="10" y="522">  │ │   │ │   ├── isobject@2.1.0 </tspan>
<tspan x="10" y="538">  │ │   │ │   ├── randomatic@1.1.6 </tspan>
<tspan x="10" y="554">  │ │   │ │   └── repeat-string@1.6.1 </tspan>
<tspan x="10" y="570">  │ │   │ ├── preserve@0.2.0 </tspan>
<tspan x="10" y="586">  │ │   │ └── repeat-element@1.1.2 </tspan>
<tspan x="10" y="602">  │ │   ├─┬ expand-brackets@0.1.5 </tspan>
<tspan x="10" y="618">  │ │   │ └── is-posix-bracket@0.1.1 </tspan>
<tspan x="10" y="634">  │ │   ├── extglob@0.3.2 </tspan>
<tspan x="10" y="650">  │ │   ├── filename-regex@2.0.0 </tspan>
<tspan x="10" y="666">  │ │   ├─┬ kind-of@3.1.0 </tspan>
<tspan x="10" y="682">  │ │   │ └── is-buffer@1.1.5 </tspan>
<tspan x="10" y="698">  │ │   ├─┬ normalize-path@2.1.1 </tspan>
<tspan x="10" y="714">  │ │   │ └── remove-trailing-separator@1.0.1 </tspan>
<tspan x="10" y="730">  │ │   ├─┬ object.omit@2.0.1 </tspan>
<tspan x="10" y="746">  │ │   │ ├─┬ for-own@0.1.5 </tspan>
<tspan x="10" y="762">  │ │   │ │ └── for-in@1.0.2 </tspan>
<tspan x="10" y="778">  │ │   │ └── is-extendable@0.1.1 </tspan>
<tspan x="10" y="794">  │ │   ├─┬ parse-glob@3.0.4 </tspan>
<tspan x="10" y="810">  │ │   │ ├── glob-base@0.3.0 </tspan>
<tspan x="10" y="826">  │ │   │ └── is-dotfile@1.0.2 </tspan>
<tspan x="10" y="842">  │ │   └─┬ regex-cache@0.4.3 </tspan>
<tspan x="10" y="858">  │ │     ├── is-equal-shallow@0.1.3 </tspan>
<tspan x="10" y="874">  │ │     └── is-primitive@2.0.0 </tspan>
<tspan x="10" y="890">  │ ├── async-each@1.0.1 </tspan>
<tspan x="10" y="906">  │ ├── glob-parent@2.0.0 </tspan>
<tspan x="10" y="922">  │ ├── inherits@2.0.3 </tspan>
<tspan x="10" y="938">  │ ├─┬ is-binary-path@1.0.1 </tspan>
<tspan x="10" y="954">  │ │ └── binary-extensions@1.8.0 </tspan>
<tspan x="10" y="970">  │ ├─┬ is-glob@2.0.1 </tspan>
<tspan x="10" y="986">  │ │ └── is-extglob@1.0.0 </tspan>
<tspan x="10" y="1002">  │ ├── path-is-absolute@1.0.1 </tspan>
<tspan x="10" y="1018">  │ └─┬ readdirp@2.1.0 </tspan>
<tspan x="10" y="1034">  │   ├── graceful-fs@4.1.11 </tspan>
<tspan x="10" y="1050">  │   ├─┬ minimatch@3.0.3 </tspan>
<tspan x="10" y="1066">  │   │ └─┬ brace-expansion@1.1.7 </tspan>
<tspan x="10" y="1082">  │   │   └── concat-map@0.0.1 </tspan>
<tspan x="10" y="1098">  │   ├─┬ readable-stream@2.2.9 </tspan>
<tspan x="10" y="1114">  │   │ ├── buffer-shims@1.0.0 </tspan>
<tspan x="10" y="1130">  │   │ ├── core-util-is@1.0.2 </tspan>
<tspan x="10" y="1146">  │   │ ├── isarray@1.0.0 </tspan>
<tspan x="10" y="1162">  │   │ ├── process-nextick-args@1.0.7 </tspan>
<tspan x="10" y="1178">  │   │ ├── string_decoder@1.0.0 </tspan>
<tspan x="10" y="1194">  │   │ └── util-deprecate@1.0.2 </tspan>
<tspan x="10" y="1210">  │   └── set-immediate-shim@1.0.1 </tspan>
<tspan x="10" y="1226">  ├─┬ commander@2.9.0 </tspan>
<tspan x="10" y="1242">  │ └── graceful-readlink@1.0.1 </tspan>
<tspan x="10" y="1258">  ├─┬ cssnano@2.6.1 </tspan>
<tspan x="10" y="1274">  │ ├── balanced-match@0.2.1 </tspan>
<tspan x="10" y="1290">  │ ├── css-list@0.1.3 </tspan>
<tspan x="10" y="1306">  │ ├── decamelize@1.2.0 </tspan>
<tspan x="10" y="1322">  │ ├── defined@1.0.0 </tspan>
<tspan x="10" y="1338">  │ ├── indexes-of@1.0.1 </tspan>
<tspan x="10" y="1354">  │ ├── minimist@1.2.0 </tspan>
<tspan x="10" y="1370">  │ ├─┬ postcss-colormin@1.2.7 </tspan>
<tspan x="10" y="1386">  │ │ └─┬ colormin@1.1.2 </tspan>
<tspan x="10" y="1402">  │ │   ├─┬ color@0.11.4 </tspan>
<tspan x="10" y="1418">  │ │   │ └── color-convert@1.9.0 </tspan>
<tspan x="10" y="1434">  │ │   ├── css-color-names@0.0.4 </tspan>
<tspan x="10" y="1450">  │ │   └─┬ has@1.0.1 </tspan>
<tspan x="10" y="1466">  │ │     └── function-bind@1.1.0 </tspan>
<tspan x="10" y="1482">  │ ├─┬ postcss-convert-values@1.3.1 </tspan>
<tspan x="10" y="1498">  │ │ └── postcss-value-parser@1.4.2 </tspan>
<tspan x="10" y="1514">  │ ├─┬ postcss-discard-comments@1.2.1 </tspan>
<tspan x="10" y="1530">  │ │ └── node-balanced@0.0.14 </tspan>
<tspan x="10" y="1546">  │ ├── postcss-discard-duplicates@1.2.1 </tspan>
<tspan x="10" y="1562">  │ ├── postcss-discard-empty@1.1.2 </tspan>
<tspan x="10" y="1578">  │ ├─┬ postcss-discard-unused@1.0.3 </tspan>
<tspan x="10" y="1594">  │ │ ├── flatten@0.0.1 </tspan>
<tspan x="10" y="1610">  │ │ └── uniqs@2.0.0 </tspan>
<tspan x="10" y="1626">  │ ├─┬ postcss-filter-plugins@1.0.1 </tspan>
<tspan x="10" y="1642">  │ │ └── uniqid@1.0.0 </tspan>
<tspan x="10" y="1658">  │ ├── postcss-font-family@1.2.1 </tspan>
<tspan x="10" y="1674">  │ ├── postcss-merge-idents@1.0.2 </tspan>
<tspan x="10" y="1690">  │ ├── postcss-merge-longhand@1.0.2 </tspan>
<tspan x="10" y="1706">  │ ├── postcss-merge-rules@1.3.6 </tspan>
<tspan x="10" y="1722">  │ ├── postcss-minify-font-weight@1.0.1 </tspan>
<tspan x="10" y="1738">  │ ├─┬ postcss-minify-selectors@1.5.0 </tspan>
<tspan x="10" y="1754">  │ │ ├── javascript-natural-sort@0.7.1 </tspan>
<tspan x="10" y="1770">  │ │ └── normalize-selector@0.2.0 </tspan>
<tspan x="10" y="1786">  │ ├─┬ postcss-normalize-url@2.1.3 </tspan>
<tspan x="10" y="1802">  │ │ ├── is-absolute-url@2.1.0 </tspan>
<tspan x="10" y="1818">  │ │ ├─┬ normalize-url@1.9.1 </tspan>
<tspan x="10" y="1834">  │ │ │ ├── object-assign@4.1.1 </tspan>
<tspan x="10" y="1850">  │ │ │ ├── prepend-http@1.0.4 </tspan>
<tspan x="10" y="1866">  │ │ │ ├─┬ query-string@4.3.4 </tspan>
<tspan x="10" y="1882">  │ │ │ │ ├── object-assign@4.1.1 </tspan>
<tspan x="10" y="1898">  │ │ │ │ └── strict-uri-encode@1.1.0 </tspan>
<tspan x="10" y="1914">  │ │ │ └─┬ sort-keys@1.1.2 </tspan>
<tspan x="10" y="1930">  │ │ │   └── is-plain-obj@1.1.0 </tspan>
<tspan x="10" y="1946">  │ │ └── object-assign@4.1.1 </tspan>
<tspan x="10" y="1962">  │ ├── postcss-ordered-values@1.1.1 </tspan>
<tspan x="10" y="1978">  │ ├── postcss-reduce-idents@1.0.3 </tspan>
<tspan x="10" y="1994">  │ ├─┬ postcss-single-charset@0.3.0 </tspan>
<tspan x="10" y="2010">  │ │ └─┬ fs-extra@0.14.0 </tspan>
<tspan x="10" y="2026">  │ │   ├── jsonfile@2.4.0 </tspan>
<tspan x="10" y="2042">  │ │   ├── ncp@1.0.1 </tspan>
<tspan x="10" y="2058">  │ │   └─┬ rimraf@2.6.1 </tspan>
<tspan x="10" y="2074">  │ │     └─┬ glob@7.1.1 </tspan>
<tspan x="10" y="2090">  │ │       └── fs.realpath@1.0.0 </tspan>
<tspan x="10" y="2106">  │ ├── postcss-unique-selectors@1.0.1 </tspan>
<tspan x="10" y="2122">  │ └── postcss-zindex@1.1.3 </tspan>
<tspan x="10" y="2138">  ├── exit@0.1.2 </tspan>
<tspan x="10" y="2154">  ├─┬ mkdirp@0.5.1 </tspan>
<tspan x="10" y="2170">  │ └── minimist@0.0.8 </tspan>
<tspan x="10" y="2186">  ├─┬ pixrem@1.3.1 </tspan>
<tspan x="10" y="2202">  │ ├── browserslist@0.5.0 </tspan>
<tspan x="10" y="2218">  │ └─┬ reduce-css-calc@1.3.0 </tspan>
<tspan x="10" y="2234">  │   ├── balanced-match@0.4.2 </tspan>
<tspan x="10" y="2250">  │   └── math-expression-evaluator@1.2.16 </tspan>
<tspan x="10" y="2266">  ├─┬ pleeease-filters@1.0.1 </tspan>
<tspan x="10" y="2282">  │ └── onecolor@2.4.2 </tspan>
<tspan x="10" y="2298">  ├─┬ postcss@4.1.16 </tspan>
<tspan x="10" y="2314">  │ ├── es6-promise@2.3.0 </tspan>
<tspan x="10" y="2330">  │ ├── js-base64@2.1.9 </tspan>
<tspan x="10" y="2346">  │ └─┬ source-map@0.4.4 </tspan>
<tspan x="10" y="2362">  │   └── amdefine@1.0.1 </tspan>
<tspan x="10" y="2378">  ├─┬ postcss-calc@4.1.0 </tspan>
<tspan x="10" y="2394">  │ └── postcss-message-helpers@2.0.0 </tspan>
<tspan x="10" y="2410">  ├─┬ postcss-color-function@1.3.2 </tspan>
<tspan x="10" y="2426">  │ ├── balanced-match@0.1.0 </tspan>
<tspan x="10" y="2442">  │ ├─┬ css-color-function@1.3.0 </tspan>
<tspan x="10" y="2458">  │ │ ├── balanced-match@0.1.0 </tspan>
<tspan x="10" y="2474">  │ │ ├─┬ color@0.11.4 </tspan>
<tspan x="10" y="2490">  │ │ │ ├── clone@1.0.2 </tspan>
<tspan x="10" y="2506">  │ │ │ └── color-convert@1.9.0 </tspan>
<tspan x="10" y="2522">  │ │ ├── debug@0.7.4 </tspan>
<tspan x="10" y="2538">  │ │ └── rgb@0.1.0 </tspan>
<tspan x="10" y="2554">  │ └── postcss-message-helpers@1.1.1 </tspan>
<tspan x="10" y="2570">  ├─┬ postcss-color-gray@2.0.0 </tspan>
<tspan x="10" y="2586">  │ ├─┬ color@0.7.3 </tspan>
<tspan x="10" y="2602">  │ │ ├── color-convert@0.5.3 </tspan>
<tspan x="10" y="2618">  │ │ └─┬ color-string@0.2.4 </tspan>
<tspan x="10" y="2634">  │ │   └── color-name@1.0.1 </tspan>
<tspan x="10" y="2650">  │ └── reduce-function-call@1.0.2 </tspan>
<tspan x="10" y="2666">  ├─┬ postcss-color-hex-alpha@1.3.0 </tspan>
<tspan x="10" y="2682">  │ └── color@0.10.1 </tspan>
<tspan x="10" y="2698">  ├── postcss-color-hwb@1.2.0 </tspan>
<tspan x="10" y="2714">  ├─┬ postcss-color-rebeccapurple@1.2.0 </tspan>
<tspan x="10" y="2730">  │ └── color@0.9.0 </tspan>
<tspan x="10" y="2746">  ├─┬ postcss-color-rgba-fallback@1.3.1 </tspan>
<tspan x="10" y="2762">  │ └─┬ color-string@0.3.0 </tspan>
<tspan x="10" y="2778">  │   └── color-name@1.1.2 </tspan>
<tspan x="10" y="2794">  ├── postcss-custom-media@4.1.0 </tspan>
<tspan x="10" y="2810">  ├─┬ postcss-custom-properties@4.2.0 </tspan>
<tspan x="10" y="2826">  │ └── balanced-match@0.1.0 </tspan>
<tspan x="10" y="2842">  ├─┬ postcss-custom-selectors@2.3.0 </tspan>
<tspan x="10" y="2858">  │ └── balanced-match@0.2.1 </tspan>
<tspan x="10" y="2874">  ├── postcss-font-variant@1.2.0 </tspan>
<tspan x="10" y="2890">  ├─┬ postcss-import@6.2.0 </tspan>
<tspan x="10" y="2906">  │ ├── clone@0.1.19 </tspan>
<tspan x="10" y="2922">  │ ├─┬ glob@5.0.15 </tspan>
<tspan x="10" y="2938">  │ │ ├─┬ inflight@1.0.6 </tspan>
<tspan x="10" y="2954">  │ │ │ └── wrappy@1.0.2 </tspan>
<tspan x="10" y="2970">  │ │ └── once@1.4.0 </tspan>
<tspan x="10" y="2986">  │ ├── object-assign@3.0.0 </tspan>
<tspan x="10" y="3002">  │ └─┬ resolve@1.3.2 </tspan>
<tspan x="10" y="3018">  │   └── path-parse@1.0.5 </tspan>
<tspan x="10" y="3034">  ├── postcss-media-minmax@1.2.0 </tspan>
<tspan x="10" y="3050">  ├── postcss-messages@0.2.2 </tspan>
<tspan x="10" y="3066">  ├─┬ postcss-pseudo-class-any-link@0.2.1 </tspan>
<tspan x="10" y="3082">  │ └─┬ postcss-selector-parser@1.3.3 </tspan>
<tspan x="10" y="3098">  │   ├── flatten@1.0.2 </tspan>
<tspan x="10" y="3114">  │   └── uniq@1.0.1 </tspan>
<tspan x="10" y="3130">  ├── postcss-pseudoelements@2.2.0 </tspan>
<tspan x="10" y="3146">  ├─┬ postcss-reporter@0.1.0 </tspan>
<tspan x="10" y="3162">  │ └─┬ lodash.difference@3.2.2 </tspan>
<tspan x="10" y="3178">  │   ├─┬ lodash._basedifference@3.0.3 </tspan>
<tspan x="10" y="3194">  │   │ ├── lodash._baseindexof@3.1.0 </tspan>
<tspan x="10" y="3210">  │   │ ├── lodash._cacheindexof@3.0.2 </tspan>
<tspan x="10" y="3226">  │   │ └─┬ lodash._createcache@3.1.2 </tspan>
<tspan x="10" y="3242">  │   │   └── lodash._getnative@3.9.1 </tspan>
<tspan x="10" y="3258">  │   ├─┬ lodash._baseflatten@3.1.4 </tspan>
<tspan x="10" y="3274">  │   │ ├── lodash.isarguments@3.1.0 </tspan>
<tspan x="10" y="3290">  │   │ └── lodash.isarray@3.0.4 </tspan>
<tspan x="10" y="3306">  │   └── lodash.restparam@3.6.1 </tspan>
<tspan x="10" y="3322">  ├─┬ postcss-selector-matches@1.2.1 </tspan>
<tspan x="10" y="3338">  │ └── balanced-match@0.2.1 </tspan>
<tspan x="10" y="3354">  ├─┬ postcss-selector-not@1.2.1 </tspan>
<tspan x="10" y="3370">  │ └── balanced-match@0.2.1 </tspan>
<tspan x="10" y="3386">  ├─┬ postcss-url@4.0.1 </tspan>
<tspan x="10" y="3402">  │ ├─┬ directory-encoder@0.6.1 </tspan>
<tspan x="10" y="3418">  │ │ ├─┬ fs-extra@0.8.1 </tspan>
<tspan x="10" y="3434">  │ │ │ ├── jsonfile@1.1.1 </tspan>
<tspan x="10" y="3450">  │ │ │ ├── mkdirp@0.3.5 </tspan>
<tspan x="10" y="3466">  │ │ │ ├── ncp@0.4.2 </tspan>
<tspan x="10" y="3482">  │ │ │ └── rimraf@2.2.8 </tspan>
<tspan x="10" y="3498">  │ │ ├─┬ handlebars@1.1.2 </tspan>
<tspan x="10" y="3514">  │ │ │ ├─┬ optimist@0.3.7 </tspan>
<tspan x="10" y="3530">  │ │ │ │ └── wordwrap@0.0.3 </tspan>
<tspan x="10" y="3546">  │ │ │ └─┬ uglify-js@2.3.6 </tspan>
<tspan x="10" y="3562">  │ │ │   ├── async@0.2.10 </tspan>
<tspan x="10" y="3578">  │ │ │   └── source-map@0.1.43 </tspan>
<tspan x="10" y="3594">  │ │ ├─┬ img-stats@0.4.2 </tspan>
<tspan x="10" y="3610">  │ │ │ └── xmldom@0.1.16 </tspan>
<tspan x="10" y="3626">  │ │ └── lodash@2.4.0 </tspan>
<tspan x="10" y="3642">  │ └── mime@1.3.4 </tspan>
<tspan x="10" y="3658">  ├─┬ read-file-stdin@0.2.1 </tspan>
<tspan x="10" y="3674">  │ └── gather-stream@1.0.0 </tspan>
<tspan x="10" y="3690">  ├─┬ to-slug-case@0.1.2 </tspan>
<tspan x="10" y="3706">  │ └─┬ to-space-case@0.1.2 </tspan>
<tspan x="10" y="3722">  │   └── to-no-case@0.1.1 </tspan>
<tspan x="10" y="3738">  ├─┬ to-space-case@0.1.3 </tspan>
<tspan x="10" y="3754">  │ └── to-no-case@0.1.2 </tspan>
<tspan x="10" y="3770">  └── write-file-stdout@0.0.2</tspan>
</text>
</svg>
